<svg xmlns:svg="http://www.w3.org/2000/svg" xmlns="http://www.w3.org/2000/svg" xmlns:xlink="http://www.w3.org/1999/xlink" width="128" height="128" id="svg3513" version="1.1">
  <style>
	#mist_cloud_1 > .mist_cloud_group {
		-webkit-animation: wave 30s ease-in-out infinite alternate;
		animation: wave 30s ease-in-out infinite alternate;
	}
	#mist_cloud_2 > .mist_cloud_group {
		-webkit-animation: wave 30s ease-in-out infinite alternate-reverse;
		animation: wave 30s ease-in-out infinite alternate-reverse;
	}
	#mist_cloud_3 > .mist_cloud_group {
		-webkit-animation: wave 30s ease-in-out infinite alternate-reverse;
		animation: wave 30s ease-in-out infinite alternate;
	}
	#mist_cloud_4 > .mist_cloud_group {
		-webkit-animation: wave 30s ease-in-out infinite alternate;
		animation: wave 30s ease-in-out infinite alternate;
	}	
	.sun_rotate {
		-webkit-animation: spin 30s linear infinite;
		-moz-animation: spin 30s linear infinite;
		animation: spin 30s linear infinite;
	}
	@-moz-keyframes spin { 
		100% {
			-moz-transform: rotate(360deg); 
		}
	}
	@-webkit-keyframes spin {
		100% {
			-webkit-transform: rotate(360deg); 
		} 
	}
	@keyframes spin {
		100% {
			-webkit-transform: rotate(360deg); 
			transform: rotate(360deg);
		}
	}
	
	@-moz-keyframes wave { 
		100% {
			-moz-transform: transform:translate(64px,0); 
		}
	}
	@-webkit-keyframes wave {
		100% {
			-webkit-transform: transform:translate(64px,0); 
		} 
	}
	@keyframes wave {
		0% {
			-webkit-transform: translate(0,0); 
			transform: translate(16px,0);
		}	
		100% {
			-webkit-transform: translate(164px,0); 
			transform: translate(-16px,0);
		}
	}	
  </style>
  <g id="sun_group" transform="translate(64,64)">
    <path id="sun_shadow" class="sun_rotate" d="m-10 -40c-1.2 9.9-6.9 12.23-14.72 6.06 2.68 9.6-1.7 13.92-11.28 11.22 6.15 7.84 3.76 13.49-6.12 14.66 8.69 4.89 8.66 11.05-0.03 15.91 9.9 1.2 12.23 6.9 6.06 14.72 9.6-2.68 13.92 1.7 11.22 11.28 7.84-6.15 13.49-3.76 14.66 6.13 4.89-8.69 11.05-8.66 15.91 0.03 1.2-9.9 6.9-12.23 14.72-6.06-2.68-9.6 1.7-13.92 11.28-11.22-6.15-7.84-3.76-13.49 6.13-14.66-8.69-4.89-8.66-11.05 0.03-15.91-9.9-1.2-12.23-6.9-6.06-14.72-9.6 2.68-13.92-1.7-11.22-11.28-7.84 6.15-13.49 3.76-14.66-6.12-4.89 8.69-11.05 8.66-15.91-0.03z" style="fill-rule:nonzero;fill:url(#linearGradient8653);filter:url(#filter4443);opacity:0.6"/>
    <path id="sun" class="sun_rotate" d="m-10 -40c-1.2 9.9-6.9 12.23-14.72 6.06 2.68 9.6-1.7 13.92-11.28 11.22 6.15 7.84 3.76 13.49-6.12 14.66 8.69 4.89 8.66 11.05-0.03 15.91 9.9 1.2 12.23 6.9 6.06 14.72 9.6-2.68 13.92 1.7 11.22 11.28 7.84-6.15 13.49-3.76 14.66 6.13 4.89-8.69 11.05-8.66 15.91 0.03 1.2-9.9 6.9-12.23 14.72-6.06-2.68-9.6 1.7-13.92 11.28-11.22-6.15-7.84-3.76-13.49 6.13-14.66-8.69-4.89-8.66-11.05 0.03-15.91-9.9-1.2-12.23-6.9-6.06-14.72-9.6 2.68-13.92-1.7-11.22-11.28-7.84 6.15-13.49 3.76-14.66-6.12-4.89 8.69-11.05 8.66-15.91-0.03z" style="fill-rule:nonzero;fill:yellow"/>
  </g>
  <g id="mist_cloud_1" transform="translate(64,60) scale(0.5,0.5)">
	<g id="mist_cloud_group" class="mist_cloud_group">
		<path id="mist_cloud_shadow" d="M 0,0 C -23,0 -41.5,1.4 -41.5,3.2 -41.5,5 -22.9,6.5 0,6.5 23,6.5 41.6,5 41.6,3.2 41.6,1.4 23,0 0,0 Z" style="fill-rule:nonzero;fill:url(#linearGradient8653);filter:url(#filter4443);opacity:0.6" />
		<path id="mist_cloud" d="M 0,0 C -23,0 -41.5,1.4 -41.5,3.2 -41.5,5 -22.9,6.5 0,6.5 23,6.5 41.6,5 41.6,3.2 41.6,1.4 23,0 0,0 Z" style="fill:#ffffff;fill-opacity:1"/>
	</g>
  </g>
  <g id="mist_cloud_2" transform="translate(32,65)">
	<use xlink:href="#mist_cloud_group" class="mist_cloud_group" />
  </g>
  <g id="mist_cloud_3" transform="translate(32,73)">
	<use xlink:href="#mist_cloud_group" class="mist_cloud_group" />
  </g>
  <g id="mist_cloud_4" transform="translate(64,80) scale(0.5,0.5)">
	<use xlink:href="#mist_cloud_group" class="mist_cloud_group" />
  </g>
  <g id="mist_cloud_4" transform="translate(45,86) scale(1.2,1.2)">
	<use xlink:href="#mist_cloud_group" />
  </g>  
  <metadata id="metadata4153"/>
  <defs id="defs3515">
    <filter id="filter4443" x="-0.14" width="1.28" y="-0.14" height="1.28" color-interpolation-filters="sRGB">
      <feGaussianBlur stdDeviation="4.61" id="feGaussianBlur4445"/>
    </filter>
    <linearGradient id="linearGradient5409-69">
      <stop offset="0" id="stop5411-42" style="stop-color:#000000;stop-opacity:1"/>
    </linearGradient>
    <linearGradient xlink:href="#linearGradient5409-69" id="linearGradient8653" gradientUnits="userSpaceOnUse" x1="-438.69" y1="461.13" x2="-335.09" y2="461.13"/>
  </defs>
</svg>